<svg xmlns="http://www.w3.org/2000/svg" xmlns:xlink="http://www.w3.org/1999/xlink" width="1476" height="492" viewBox="0 0 390.525 130.175" enable-background="new"><defs><linearGradient id="a"><stop offset="0" style="stop-color:#37483e;stop-opacity:1"/><stop offset="1" style="stop-color:#15241f;stop-opacity:1"/></linearGradient><linearGradient xlink:href="#b" id="y" x1="1218.871" y1="533.899" x2="1482.984" y2="503.797" gradientUnits="userSpaceOnUse"/><linearGradient id="b"><stop style="stop-color:#0cf;stop-opacity:1" offset="0"/><stop style="stop-color:#000;stop-opacity:1" offset="1"/></linearGradient><linearGradient id="j"><stop style="stop-color:#191e1a;stop-opacity:1" offset="0"/><stop style="stop-color:#1a2d2a;stop-opacity:1" offset="1"/></linearGradient><linearGradient id="k"><stop style="stop-color:#1c241f;stop-opacity:1" offset="0"/><stop style="stop-color:#2b3931;stop-opacity:1" offset="1"/></linearGradient><linearGradient id="c"><stop style="stop-color:#0fc;stop-opacity:1" offset="0"/><stop style="stop-color:#237d7f;stop-opacity:0" offset="1"/></linearGradient><linearGradient id="l"><stop style="stop-color:#242f28;stop-opacity:1" offset="0"/><stop style="stop-color:#1c241f;stop-opacity:1" offset="1"/></linearGradient><linearGradient id="d"><stop style="stop-color:#536c5d;stop-opacity:1" offset="0"/><stop style="stop-color:#536c5d;stop-opacity:0" offset="1"/></linearGradient><linearGradient id="m"><stop offset="0" style="stop-color:#2ca089;stop-opacity:1"/><stop offset="1" style="stop-color:#93ac93;stop-opacity:0"/></linearGradient><linearGradient id="n"><stop style="stop-color:#37c8ab;stop-opacity:1" offset="0"/><stop style="stop-color:#93ac93;stop-opacity:0" offset="1"/></linearGradient><linearGradient id="o"><stop style="stop-color:#6f917c;stop-opacity:1" offset="0"/><stop style="stop-color:#1c2422;stop-opacity:1" offset="1"/></linearGradient><linearGradient id="p"><stop offset="0" style="stop-color:#6f917c;stop-opacity:1"/><stop offset="1" style="stop-color:#b7c8c4;stop-opacity:.06956521"/></linearGradient><linearGradient id="q"><stop style="stop-color:#00d4aa;stop-opacity:1" offset="0"/><stop style="stop-color:#00d4aa;stop-opacity:0" offset="1"/></linearGradient><linearGradient xlink:href="#e" id="S" x1="356.724" y1="182.171" x2="344.488" y2="129.496" gradientUnits="userSpaceOnUse" gradientTransform="translate(34.475 -21.167)"/><linearGradient id="e"><stop style="stop-color:#171e1c;stop-opacity:1" offset="0"/><stop offset=".801" style="stop-color:#152320;stop-opacity:1"/><stop style="stop-color:#152521;stop-opacity:1" offset="1"/></linearGradient><linearGradient xlink:href="#f" id="T" x1="347.936" y1="171.565" x2="354.542" y2="126.321" gradientUnits="userSpaceOnUse" gradientTransform="translate(34.475 -21.167)"/><linearGradient id="f"><stop style="stop-color:#374845;stop-opacity:1" offset="0"/><stop style="stop-color:#152a27;stop-opacity:1" offset="1"/></linearGradient><linearGradient xlink:href="#g" id="U" x1="345.862" y1="127.056" x2="350.061" y2="140.947" gradientUnits="userSpaceOnUse" gradientTransform="translate(34.475 -21.167)"/><linearGradient id="g"><stop style="stop-color:#131915;stop-opacity:1" offset="0"/><stop style="stop-color:#0a0c0c;stop-opacity:0" offset="1"/></linearGradient><linearGradient id="h"><stop style="stop-color:#d7f4d7;stop-opacity:1" offset="0"/><stop style="stop-color:#d7f4d7;stop-opacity:0" offset="1"/></linearGradient><linearGradient xlink:href="#i" id="X" gradientUnits="userSpaceOnUse" gradientTransform="matrix(.76875 0 0 .45556 124.883 6.125)" x1="260.017" y1="-61.619" x2="260.017" y2="294.732"/><linearGradient id="i"><stop style="stop-color:#217844;stop-opacity:1" offset="0"/><stop offset=".429" style="stop-color:#124639;stop-opacity:.56862748"/><stop style="stop-color:#00222b;stop-opacity:0" offset="1"/></linearGradient><linearGradient xlink:href="#j" id="D" gradientUnits="userSpaceOnUse" x1="207.373" y1="85.704" x2="207.373" y2="35.49"/><linearGradient xlink:href="#k" id="E" gradientUnits="userSpaceOnUse" x1="744.846" y1="-147.47" x2="689.379" y2="-320"/><linearGradient xlink:href="#l" id="G" gradientUnits="userSpaceOnUse" x1="169.726" y1="66.151" x2="191.85" y2="66.151"/><linearGradient xlink:href="#m" id="M" gradientUnits="userSpaceOnUse" gradientTransform="translate(-1.058)" x1="177.823" y1="66.156" x2="184.157" y2="66.156"/><linearGradient xlink:href="#n" id="N" gradientUnits="userSpaceOnUse" gradientTransform="matrix(3.77953 0 0 2.69416 -313.612 -1006.2)" x1="177.823" y1="66.156" x2="184.157" y2="66.156"/><linearGradient xlink:href="#o" id="P" gradientUnits="userSpaceOnUse" x1="180.262" y1="79.843" x2="177.902" y2="58.214"/><linearGradient xlink:href="#p" id="Q" gradientUnits="userSpaceOnUse" gradientTransform="matrix(1.00575 0 0 .63337 1.617 24.253)" x1="180.262" y1="79.843" x2="177.902" y2="58.214"/><linearGradient xlink:href="#q" id="R" gradientUnits="userSpaceOnUse" x1="164.84" y1="43.409" x2="203.959" y2="43.128"/><filter style="color-interpolation-filters:sRGB" id="r" x="-.349" width="1.697" y="-.333" height="1.667"><feGaussianBlur stdDeviation="3.381"/></filter><filter style="color-interpolation-filters:sRGB" id="s" x="-.412" width="1.825" y="-.394" height="1.789"><feGaussianBlur stdDeviation="4"/></filter><filter style="color-interpolation-filters:sRGB" id="w" x="-.309" width="1.618" y="-.766" height="2.533"><feGaussianBlur stdDeviation="5.974"/></filter><filter style="color-interpolation-filters:sRGB" id="x" x="-.206" width="1.412" y="-.508" height="2.015"><feGaussianBlur stdDeviation="3.982"/></filter><filter style="color-interpolation-filters:sRGB" id="z" x="-.1" width="1.199" y="-.076" height="1.152"><feGaussianBlur stdDeviation=".997"/></filter><filter style="color-interpolation-filters:sRGB" id="A" x="-.541" width="2.082" y="-.518" height="2.035"><feGaussianBlur stdDeviation="5.251"/></filter><filter style="color-interpolation-filters:sRGB" id="B" x="-.701" width="2.402" y="-.67" height="2.341"><feGaussianBlur stdDeviation="6.798"/></filter><filter style="color-interpolation-filters:sRGB" id="C" x="-.68" width="2.36" y="-.65" height="2.301"><feGaussianBlur stdDeviation="6.596"/></filter><filter style="color-interpolation-filters:sRGB" id="J" x="-.139" width="1.278" y="-.541" height="2.082"><feGaussianBlur stdDeviation="1.88"/></filter><filter style="color-interpolation-filters:sRGB" id="K" x="-.137" width="1.275" y="-.69" height="2.379"><feGaussianBlur stdDeviation="1.859"/></filter><filter style="color-interpolation-filters:sRGB" id="L" x="-.096" width="1.191" y="-.781" height="2.563"><feGaussianBlur stdDeviation="1.711"/></filter><filter style="color-interpolation-filters:sRGB" id="Y"><feBlend mode="hue" in2="BackgroundImage"/></filter><radialGradient xlink:href="#a" id="u" cx="312.926" cy="83.708" fx="312.926" fy="83.708" r="44.979" gradientUnits="userSpaceOnUse" gradientTransform="matrix(1.7353 -.01765 .01388 1.36463 -170.32 -62.042)"/><radialGradient xlink:href="#h" id="V" cx="329.136" cy="88.199" fx="329.136" fy="88.199" r="7.844" gradientTransform="matrix(1.27429 0 0 1.17758 20.846 -10.427)" gradientUnits="userSpaceOnUse"/><radialGradient xlink:href="#h" id="t" cx="339.753" cy="32.14" fx="339.753" fy="32.14" r="6.719" gradientTransform="matrix(1.33473 0 0 .52322 -2.6 20.616)" gradientUnits="userSpaceOnUse"/><radialGradient xlink:href="#h" id="W" cx="380.888" cy="79.419" fx="380.888" fy="79.419" r="4.741" gradientTransform="matrix(1 0 0 1.9098 111.125 -66.964)" gradientUnits="userSpaceOnUse"/><radialGradient xlink:href="#c" id="F" gradientUnits="userSpaceOnUse" gradientTransform="matrix(4.10251 0 0 3.95923 -527.377 -192.818)" cx="168.719" cy="57.245" fx="168.719" fy="57.245" r="7.938"/><radialGradient xlink:href="#d" id="H" gradientUnits="userSpaceOnUse" gradientTransform="matrix(2.69483 .68883 -1.82408 7.13617 -1588.017 1034.865)" cx="672.157" cy="-246.057" fx="672.157" fy="-246.057" r="13.702"/><clipPath clipPathUnits="userSpaceOnUse" id="v"><circle r="44.979" cy="117.839" cx="340.179" style="fill:url(#radialGradient4988);fill-opacity:1;stroke-width:.17111641"/></clipPath><clipPath clipPathUnits="userSpaceOnUse" id="I"><path style="fill:url(#linearGradient5326);fill-opacity:1;stroke-width:.26458332" d="M175.419 43v.455a7.805 22.886 0 0 1 .926-.19 7.805 22.886 0 0 1 7.805 22.886 7.805 22.886 0 0 1-7.497 22.855h26.99a7.805 22.886 0 0 0 .218.032 7.805 22.886 0 0 0 7.806-22.887 7.805 22.886 0 0 0-7.806-22.886 7.805 22.886 0 0 0-.132.014V43Zm0 45.858v.148h.707a7.805 22.886 0 0 1-.707-.148z"/></clipPath><clipPath clipPathUnits="userSpaceOnUse" id="O"><ellipse style="fill:url(#linearGradient956);fill-opacity:1;stroke-width:.22842805" cx="176.345" cy="66.151" rx="6.619" ry="20.116"/></clipPath></defs><g transform="translate(-124.883 -11.25)"><ellipse transform="translate(311.03 61.039) scale(.40004)" ry="12.171" rx="11.642" cy="85.863" cx="321.733" style="opacity:.80869565;fill:#d7f4d7;fill-opacity:1;stroke:none;stroke-width:.26458332;stroke-miterlimit:4;stroke-dasharray:none;stroke-opacity:1;filter:url(#r)"/><ellipse style="opacity:.80869565;fill:#d5ffe6;fill-opacity:1;stroke:none;stroke-width:.26458332;stroke-miterlimit:4;stroke-dasharray:none;stroke-opacity:1;filter:url(#s)" cx="321.733" cy="85.863" rx="11.642" ry="12.171" transform="matrix(.18736 0 0 .18736 403.27 87.767)"/><ellipse style="opacity:.80869565;fill:#d5ffe6;fill-opacity:1;stroke:none;stroke-width:.26458332;stroke-miterlimit:4;stroke-dasharray:none;stroke-opacity:1;filter:url(#r)" cx="321.733" cy="85.863" rx="11.642" ry="12.171" transform="matrix(.2044 0 0 .2044 428.214 70.56)"/><path d="M444.235 39.957s7.144-5.027 13.362-5.027" style="opacity:.60900005;fill:none;stroke:url(#t);stroke-width:.26458332px;stroke-linecap:butt;stroke-linejoin:miter;stroke-opacity:1"/><g transform="matrix(.76746 0 0 .76746 176.091 6.586)"><path style="fill:#374845;stroke:none;stroke-width:.26458332px;stroke-linecap:butt;stroke-linejoin:miter;stroke-opacity:1" d="m384.081 149.352 2.854-1.982 17.304-17.538 5.303-23.866-1.145 4.91-7.126 20.494z"/><path style="fill:#19201f;fill-opacity:1;stroke:none;stroke-width:.26458332px;stroke-linecap:butt;stroke-linejoin:miter;stroke-opacity:1" d="M409.63 105.68 403.206 129l-19.125 20.353-1.022-2.62 13.368-19.083-.127-9.9z"/><path style="fill:#374845;stroke:none;stroke-width:.26458332px;stroke-linecap:butt;stroke-linejoin:miter;stroke-opacity:1" d="m373.218 148.73-.803-4.143-9.928-19.62 2.57-5.68s-2.393-2.207-2.632-1.763l-.239.443-1.918 7.518z"/><ellipse ry="13.768" rx="15.163" cy="5.685" cx="406.26" style="opacity:.34000017;fill:none;fill-opacity:1;stroke:#2affd5;stroke-width:.25950801" transform="matrix(.99459 .1039 -.01099 .99994 0 0)"/><path style="fill:#161d1b;fill-opacity:1;stroke:none;stroke-width:.26458332px;stroke-linecap:butt;stroke-linejoin:miter;stroke-opacity:1" d="m353.47 111.22-.498 15.548 15.94 21.913 4.306.05-12.95-23.246 3.134-9.684z"/><circle style="fill:url(#u);fill-opacity:1;stroke-width:.1711164" cx="374.654" cy="80.798" r="44.979"/><g clip-path="url(#v)" transform="translate(34.475 -37.042)"><ellipse transform="matrix(1.57573 .23146 -.209 1.74506 -197.087 -112.2)" style="opacity:.35800003;fill:#050e11;fill-opacity:1;stroke-width:.26458332;filter:url(#w)" cx="351.595" cy="82.067" rx="23.199" ry="9.354"/><ellipse ry="9.354" rx="23.199" cy="82.067" cx="351.595" style="opacity:.12300002;fill:#0cf;fill-opacity:1;stroke-width:.26458332;filter:url(#w)" transform="matrix(1.20756 .12977 -.16017 .9784 -67.414 -42.767)"/><ellipse transform="matrix(.69536 .02707 -.0173 .58664 91.984 21.915)" style="opacity:.21700003;fill:#37c8ab;fill-opacity:1;stroke-width:.26458332;filter:url(#x)" cx="351.595" cy="82.067" rx="23.199" ry="9.354"/><path style="opacity:.081;fill:url(#y);fill-opacity:1;stroke:#dbe3de;stroke-width:1.19273758;filter:url(#filter5875)" d="M1446.443 435.69A157.049 125.904 0 0 1 1290 551.903a157.049 125.904 0 0 1-156.443-115.593 157.049 125.904 0 0 0-.606 9.689A157.049 125.904 0 0 0 1290 571.904 157.049 125.904 0 0 0 1447.049 446a157.049 125.904 0 0 0-.606-10.31z" transform="matrix(.26312 0 0 .28632 2.054 -2.93)"/><path style="fill:#1c2422;stroke:none;stroke-width:.26458332px;stroke-linecap:butt;stroke-linejoin:miter;stroke-opacity:1;filter:url(#z)" d="M309.123 87.292c3.135 24.915-.21 39.338-5.821 37.88-5.61-1.458-11.276-19.797-6.08-25.272 4.54-2.857 11.901-12.608 11.901-12.608z" transform="rotate(12.554 314.419 114.82)"/><ellipse transform="matrix(.52125 0 0 .52125 156.27 108.664)" ry="12.171" rx="11.642" cy="85.863" cx="321.733" style="opacity:.17099998;fill:#d7f4d7;fill-opacity:1;stroke:none;stroke-width:.26458332;stroke-miterlimit:4;stroke-dasharray:none;stroke-opacity:1;filter:url(#A)"/><ellipse transform="matrix(.52125 0 0 .52125 186.609 50.056)" ry="12.171" rx="11.642" cy="85.863" cx="321.733" style="opacity:.17099998;fill:#d7f4d7;fill-opacity:1;stroke:none;stroke-width:.26458332;stroke-miterlimit:4;stroke-dasharray:none;stroke-opacity:1;filter:url(#B)"/><ellipse style="opacity:.17099998;fill:#d7f4d7;fill-opacity:1;stroke:none;stroke-width:.26458332;stroke-miterlimit:4;stroke-dasharray:none;stroke-opacity:1;filter:url(#C)" cx="321.733" cy="85.863" rx="11.642" ry="12.171" transform="matrix(.52125 0 0 .52125 208.328 97.977)"/></g><g style="fill:#171d19;fill-opacity:1" transform="scale(.6787) rotate(30 333.769 641.65)"><ellipse ry="22.886" rx="7.805" cy="66.151" cx="203.862" style="fill:url(#D);fill-opacity:1;stroke-width:.26458332"/><path style="fill:#171d19;fill-opacity:1;stroke-width:.21242188" d="M175.419 43h28.31v46.005h-28.31z"/><ellipse style="fill:#171d19;fill-opacity:1;stroke-width:.26458332" cx="176.345" cy="66.151" rx="7.805" ry="22.886"/></g><g transform="rotate(30 247.796 399.562) scale(.76685)"><path transform="matrix(.26458 0 0 .26458 0 130.313)" d="M666.89-328.586 663-156.12h106.674c.275.052.55.092.826.121 16.292 0 29.5-38.727 29.5-86.5S786.792-329 770.5-329c-.167.013-.333.031-.5.053V-330Z" style="fill:url(#E);fill-opacity:1;stroke-width:1"/><ellipse ry="22.886" rx="7.805" cy="66.151" cx="176.345" style="fill:#37483e;fill-opacity:1;stroke:url(#F);stroke-width:.26458332;stroke-opacity:1"/><ellipse style="fill:url(#G);fill-opacity:1;stroke:none;stroke-width:.22842805;stroke-opacity:1" cx="176.345" cy="66.151" rx="6.619" ry="20.116"/><path transform="matrix(.26458 0 0 .26458 0 130.313)" d="M681.986-302.102a25.016 62.242 0 0 0-17.875 59.602 25.016 62.242 0 0 0 17.903 59.639 25.016 76.03 0 0 0 9.502-59.639 25.016 76.03 0 0 0-9.53-59.602z" style="fill:url(#H);fill-opacity:1;stroke-width:.78114998"/><g style="opacity:1;fill:#dbe3de;fill-opacity:1" clip-path="url(#I)"><g style="opacity:1;fill:#2ad4ff;fill-opacity:1;filter:url(#J)" transform="matrix(1 0 0 1.13457 0 133.543)"><path style="opacity:.16600001;fill:#2ad4ff;fill-opacity:1;stroke-width:.26458332" d="M180.442-68.681h32.465v8.342h-32.465z"/></g><path style="opacity:.46400003;fill:#000c09;fill-opacity:1;stroke-width:.23303141;filter:url(#K)" d="M180.449 75.46h32.465v6.471h-32.465z"/><path style="opacity:.40400002;fill:#2ad4ff;fill-opacity:1;stroke-width:.24151501;filter:url(#L)" d="M172.21 42.056h42.848v3.29H172.21z"/></g><path style="fill:url(#M);fill-opacity:1;stroke-width:.10696111" d="M179.432 58.664a3.732 7.822 0 0 0-2.667 7.49 3.732 7.822 0 0 0 2.67 7.494 3.732 9.554 0 0 0 1.418-7.494 3.732 9.554 0 0 0-1.421-7.49z"/><path d="M186.928 42.825a7.805 23.326 0 0 1 7.805 23.326 7.805 23.326 0 0 1-7.805 23.326" style="fill:none;fill-opacity:1;stroke:#1f241c;stroke-width:.26711026"/><path d="M181.636 42.825a7.805 23.326 0 0 1 7.806 23.326 7.805 23.326 0 0 1-7.806 23.326" style="fill:none;fill-opacity:1;stroke:#1f241c;stroke-width:.26711026"/><path style="opacity:.11100003;fill:none;fill-opacity:1;stroke:#dbe3de;stroke-width:.26711026" d="M187.209 42.825a7.805 23.326 0 0 1 7.805 23.326 7.805 23.326 0 0 1-7.805 23.326"/><path style="opacity:.11100003;fill:none;fill-opacity:1;stroke:#dbe3de;stroke-width:.26711026" d="M181.917 42.825a7.805 23.326 0 0 1 7.805 23.326 7.805 23.326 0 0 1-7.805 23.326"/><path transform="matrix(.26458 0 0 .26458 84.564 285.222)" d="M368.555-848.15a14.107 21.073 0 0 0-10.08 20.177 14.107 21.073 0 0 0 10.095 20.192 14.107 25.741 0 0 0 2.856-5.565 25.016 76.03 0 0 0 .478-14.638 25.016 76.03 0 0 0-.48-14.584 14.107 25.741 0 0 0-2.87-5.582z" style="opacity:.14800002;fill:url(#N);fill-opacity:1;stroke-width:.3413159"/><g clip-path="url(#O)"><path d="M182.267 82.445a6.635 16.294 0 0 1-5.746-8.147 6.635 16.294 0 0 1 0-16.294 6.635 16.294 0 0 1 5.746-8.147" style="fill:none;fill-opacity:1;stroke:url(#P);stroke-width:.26458332;stroke-miterlimit:4;stroke-dasharray:none;stroke-opacity:1"/><path style="fill:none;fill-opacity:1;stroke:#091f1b;stroke-width:.26458332;stroke-miterlimit:4;stroke-dasharray:none;stroke-opacity:1" d="M177.403 86.267a6.619 20.116 0 0 1-5.732-10.058 6.619 20.116 0 0 1 0-20.116 6.619 20.116 0 0 1 5.732-10.058"/><path d="M178.993 85.147a6.623 18.996 0 0 1-5.736-9.498 6.623 18.996 0 0 1 0-18.996 6.623 18.996 0 0 1 5.736-9.498" style="fill:none;fill-opacity:1;stroke:#091f1b;stroke-width:.26458332;stroke-miterlimit:4;stroke-dasharray:none;stroke-opacity:1"/><path style="fill:none;fill-opacity:1;stroke:#091f1b;stroke-width:.26458332;stroke-miterlimit:4;stroke-dasharray:none;stroke-opacity:1" d="M180.583 84.093a6.628 17.942 0 0 1-5.74-8.971 6.628 17.942 0 0 1 0-17.942 6.628 17.942 0 0 1 5.74-8.97"/><path style="fill:none;fill-opacity:1;stroke:url(#Q);stroke-width:.21117257;stroke-miterlimit:4;stroke-dasharray:none;stroke-opacity:1" d="M184.933 76.472a6.673 10.32 0 0 1-5.78-5.16 6.673 10.32 0 0 1 0-10.321 6.673 10.32 0 0 1 5.78-5.16"/></g><path d="m176.44 42.996 27.517.265" style="fill:none;stroke:url(#R);stroke-width:.26458332px;stroke-linecap:butt;stroke-linejoin:miter;stroke-opacity:1"/></g><ellipse transform="rotate(-14.215)" ry="5.519" rx="2.9" cy="174.853" cx="304.876" style="opacity:1;fill:#113f35;fill-opacity:1;stroke:none;stroke-width:.26458332"/><ellipse style="opacity:1;fill:#161c1a;fill-opacity:1;stroke:none;stroke-width:.26458332" cx="304.75" cy="174.275" rx="2.9" ry="5.519" transform="rotate(-14.215)"/><path style="fill:#131915;fill-opacity:1;stroke:none;stroke-width:.26458332px;stroke-linecap:butt;stroke-linejoin:miter;stroke-opacity:1" d="M370.797 119.672c1.04 1.204 8.715-9.185 13.024-22.626l6.406 2.298s-10.441 21.524-14.062 22.372z"/><path style="fill:url(#S);fill-opacity:1;stroke:none;stroke-width:.26458332px;stroke-linecap:butt;stroke-linejoin:miter;stroke-opacity:1" d="m382.808 101.313 4.092 31.053-12.69 29.282-3.627-2.086 8.745-28.463-3.788-15.943c-.02-.021 1.963-3.15 7.268-13.843z"/><path style="fill:url(#T);fill-opacity:1;stroke:none;stroke-width:.26458332px;stroke-linecap:butt;stroke-linejoin:miter;stroke-opacity:1" d="m384.13 102.107 3.015-.417 2.533 30.54-13.56 26.922-1.908 2.496 12.69-29.282z"/><path style="opacity:1;fill:url(#U);fill-opacity:1;stroke:none;stroke-width:.26458332px;stroke-linecap:butt;stroke-linejoin:miter;stroke-opacity:1" d="m375.444 115.218 2.529 9.817 7.732-6.398s3.522-.213 3.242-1.148c-.28 8.773-1.342-14.9-1.342-14.9l-3.974-3.278z"/></g><ellipse transform="matrix(.11444 0 0 .11444 435.726 118.899)" ry="12.171" rx="11.642" cy="85.863" cx="321.733" style="opacity:.80869565;fill:#d5ffe6;fill-opacity:1;stroke:none;stroke-width:.26458332;stroke-miterlimit:4;stroke-dasharray:none;stroke-opacity:1;filter:url(#s)"/><ellipse style="opacity:.80869565;fill:#d7f4d7;fill-opacity:1;stroke:none;stroke-width:.26458332;stroke-miterlimit:4;stroke-dasharray:none;stroke-opacity:1;filter:url(#r)" cx="321.733" cy="85.863" rx="11.642" ry="12.171" transform="matrix(.12457 0 0 .12457 409.207 102.435)"/><ellipse transform="matrix(.08768 0 0 .08768 453.334 94.739)" ry="12.171" rx="11.642" cy="85.863" cx="321.733" style="opacity:.80869565;fill:#d7f4d7;fill-opacity:1;stroke:none;stroke-width:.26458332;stroke-miterlimit:4;stroke-dasharray:none;stroke-opacity:1;filter:url(#r)"/><ellipse transform="matrix(.08768 0 0 .08768 423.833 87.595)" ry="12.171" rx="11.642" cy="85.863" cx="321.733" style="opacity:.80869565;fill:#d7f4d7;fill-opacity:1;stroke:none;stroke-width:.26458332;stroke-miterlimit:4;stroke-dasharray:none;stroke-opacity:1;filter:url(#r)"/><ellipse transform="matrix(.06388 0 0 .06388 433.97 96.982)" ry="12.171" rx="11.642" cy="85.863" cx="321.733" style="opacity:.80869565;fill:#d7f4d7;fill-opacity:1;stroke:none;stroke-width:.26458332;stroke-miterlimit:4;stroke-dasharray:none;stroke-opacity:1;filter:url(#r)"/><ellipse transform="matrix(.2044 0 0 .2044 393.289 104.56)" ry="12.171" rx="11.642" cy="85.863" cx="321.733" style="opacity:.80869565;fill:#d5ffe6;fill-opacity:1;stroke:none;stroke-width:.26458332;stroke-miterlimit:4;stroke-dasharray:none;stroke-opacity:1;filter:url(#r)"/><ellipse style="opacity:.80869565;fill:#d7f4d7;fill-opacity:1;stroke:none;stroke-width:.26458332;stroke-miterlimit:4;stroke-dasharray:none;stroke-opacity:1;filter:url(#r)" cx="321.733" cy="85.863" rx="11.642" ry="12.171" transform="matrix(.08768 0 0 .08768 457.567 105.587)"/><ellipse style="opacity:.80869565;fill:#d7f4d7;fill-opacity:1;stroke:none;stroke-width:.26458332;stroke-miterlimit:4;stroke-dasharray:none;stroke-opacity:1;filter:url(#r)" cx="321.733" cy="85.863" rx="11.642" ry="12.171" transform="translate(249.118 38.814) scale(.40004)"/><ellipse style="opacity:.80869565;fill:#d7f4d7;fill-opacity:1;stroke:none;stroke-width:.26458332;stroke-miterlimit:4;stroke-dasharray:none;stroke-opacity:1;filter:url(#r)" cx="321.733" cy="85.863" rx="11.642" ry="12.171" transform="matrix(.08768 0 0 .08768 379.25 76.218)"/><ellipse transform="matrix(.2044 0 0 .2044 274.755 86.833)" ry="12.171" rx="11.642" cy="85.863" cx="321.733" style="opacity:.80869565;fill:#d5ffe6;fill-opacity:1;stroke:none;stroke-width:.26458332;stroke-miterlimit:4;stroke-dasharray:none;stroke-opacity:1;filter:url(#r)"/><ellipse transform="matrix(.08768 0 0 .08768 491.245 37.664)" ry="12.171" rx="11.642" cy="85.863" cx="321.733" style="opacity:.80869565;fill:#d7f4d7;fill-opacity:1;stroke:none;stroke-width:.26458332;stroke-miterlimit:4;stroke-dasharray:none;stroke-opacity:1;filter:url(#r)"/><ellipse style="opacity:.80869565;fill:#d7f4d7;fill-opacity:1;stroke:none;stroke-width:.26458332;stroke-miterlimit:4;stroke-dasharray:none;stroke-opacity:1;filter:url(#r)" cx="321.733" cy="85.863" rx="11.642" ry="12.171" transform="matrix(.15464 0 0 .15464 483.649 105.658)"/><ellipse transform="matrix(.08768 0 0 .08768 418.938 23.301)" ry="12.171" rx="11.642" cy="85.863" cx="321.733" style="opacity:.80869565;fill:#d7f4d7;fill-opacity:1;stroke:none;stroke-width:.26458332;stroke-miterlimit:4;stroke-dasharray:none;stroke-opacity:1;filter:url(#r)"/><ellipse style="opacity:.80869565;fill:#d7f4d7;fill-opacity:1;stroke:none;stroke-width:.26458332;stroke-miterlimit:4;stroke-dasharray:none;stroke-opacity:1;filter:url(#r)" cx="321.733" cy="85.863" rx="11.642" ry="12.171" transform="matrix(.11446 0 0 .11446 436.514 39.522)"/><ellipse transform="matrix(.08768 0 0 .08768 358.084 97.385)" ry="12.171" rx="11.642" cy="85.863" cx="321.733" style="opacity:.80869565;fill:#d7f4d7;fill-opacity:1;stroke:none;stroke-width:.26458332;stroke-miterlimit:4;stroke-dasharray:none;stroke-opacity:1;filter:url(#r)"/><ellipse transform="matrix(.12457 0 0 .12457 377.457 91.852)" ry="12.171" rx="11.642" cy="85.863" cx="321.733" style="opacity:.80869565;fill:#d7f4d7;fill-opacity:1;stroke:none;stroke-width:.26458332;stroke-miterlimit:4;stroke-dasharray:none;stroke-opacity:1;filter:url(#r)"/><ellipse transform="matrix(.08768 0 0 .08768 405.709 107.968)" ry="12.171" rx="11.642" cy="85.863" cx="321.733" style="opacity:.80869565;fill:#d7f4d7;fill-opacity:1;stroke:none;stroke-width:.26458332;stroke-miterlimit:4;stroke-dasharray:none;stroke-opacity:1;filter:url(#r)"/><ellipse transform="matrix(.08768 0 0 .08768 294.584 49.76)" ry="12.171" rx="11.642" cy="85.863" cx="321.733" style="opacity:.80869565;fill:#d7f4d7;fill-opacity:1;stroke:none;stroke-width:.26458332;stroke-miterlimit:4;stroke-dasharray:none;stroke-opacity:1;filter:url(#r)"/><ellipse style="opacity:.80869565;fill:#d5ffe6;fill-opacity:1;stroke:none;stroke-width:.26458332;stroke-miterlimit:4;stroke-dasharray:none;stroke-opacity:1;filter:url(#r)" cx="321.733" cy="85.863" rx="11.642" ry="12.171" transform="matrix(.2044 0 0 .2044 348.839 113.291)"/><path d="M433.76 85.55s5.519 11.038 15.528 14.312" style="fill:none;fill-opacity:1;stroke:url(#V);stroke-width:.26458332px;stroke-linecap:butt;stroke-linejoin:miter;stroke-opacity:1"/><path d="M487.363 93.668s7.672-7.144 8.466-12.568l.794-5.424" style="opacity:.37400004;fill:none;stroke:url(#W);stroke-width:.26458332px;stroke-linecap:butt;stroke-linejoin:miter;stroke-opacity:1"/><ellipse style="opacity:.80869565;fill:#d7f4d7;fill-opacity:1;stroke:none;stroke-width:.26458332;stroke-miterlimit:4;stroke-dasharray:none;stroke-opacity:1;filter:url(#r)" cx="321.733" cy="85.863" rx="11.642" ry="12.171" transform="matrix(.08768 0 0 .08768 331.625 107.968)"/><ellipse style="opacity:.80869565;fill:#d7f4d7;fill-opacity:1;stroke:none;stroke-width:.26458332;stroke-miterlimit:4;stroke-dasharray:none;stroke-opacity:1;filter:url(#r)" cx="321.733" cy="85.863" rx="11.642" ry="12.171" transform="matrix(.08768 0 0 .08768 216.342 95.117)"/><ellipse style="opacity:.80869565;fill:#d5ffe6;fill-opacity:1;stroke:none;stroke-width:.26458332;stroke-miterlimit:4;stroke-dasharray:none;stroke-opacity:1;filter:url(#r)" cx="321.733" cy="85.863" rx="11.642" ry="12.171" transform="matrix(.2044 0 0 .2044 243.005 63.776)"/><ellipse style="opacity:.80869565;fill:#d7f4d7;fill-opacity:1;stroke:none;stroke-width:.26458332;stroke-miterlimit:4;stroke-dasharray:none;stroke-opacity:1;filter:url(#r)" cx="321.733" cy="85.863" rx="11.642" ry="12.171" transform="matrix(.34415 0 0 .34415 190.675 95.32)"/><ellipse transform="translate(29.514 1.394) scale(.40004)" ry="12.171" rx="11.642" cy="85.863" cx="321.733" style="opacity:.80869565;fill:#d7f4d7;fill-opacity:1;stroke:none;stroke-width:.26458332;stroke-miterlimit:4;stroke-dasharray:none;stroke-opacity:1;filter:url(#r)"/><ellipse transform="translate(154.423 47.556) scale(.14855)" ry="12.171" rx="11.642" cy="85.863" cx="321.733" style="opacity:.306;fill:#d7f4d7;fill-opacity:1;stroke:none;stroke-width:.26458332;stroke-miterlimit:4;stroke-dasharray:none;stroke-opacity:1;filter:url(#r)"/><ellipse style="opacity:.80869565;fill:#d7f4d7;fill-opacity:1;stroke:none;stroke-width:.26458332;stroke-miterlimit:4;stroke-dasharray:none;stroke-opacity:1;filter:url(#r)" cx="321.733" cy="85.863" rx="11.642" ry="12.171" transform="matrix(.08768 0 0 .08768 114.667 65.635)"/><ellipse style="opacity:.80869565;fill:#d7f4d7;fill-opacity:1;stroke:none;stroke-width:.26458332;stroke-miterlimit:4;stroke-dasharray:none;stroke-opacity:1;filter:url(#r)" cx="321.733" cy="85.863" rx="11.642" ry="12.171" transform="matrix(.08768 0 0 .08768 220.5 28.593)"/><ellipse style="opacity:.80869565;fill:#bdedbd;fill-opacity:1;stroke:none;stroke-width:.26458332;stroke-miterlimit:4;stroke-dasharray:none;stroke-opacity:1;filter:url(#r)" cx="321.733" cy="85.863" rx="11.642" ry="12.171" transform="matrix(.06874 0 0 .06874 247.76 67.26)"/></g></svg>
